<svg width="21" height="20" viewBox="0 0 21 20" fill="none" xmlns="http://www.w3.org/2000/svg">
<g opacity="0.7" clip-path="url(#clip0_1_4138)">
<path d="M18.002 17.5025L14.2635 13.7574L18.002 17.5025ZM16.3352 8.75215C16.3352 10.6308 15.5889 12.4326 14.2605 13.761C12.932 15.0895 11.1303 15.8358 9.2516 15.8358C7.37291 15.8358 5.57116 15.0895 4.24272 13.761C2.91428 12.4326 2.16797 10.6308 2.16797 8.75215C2.16797 6.87346 2.91428 5.07171 4.24272 3.74327C5.57116 2.41483 7.37291 1.66852 9.2516 1.66852C11.1303 1.66852 12.932 2.41483 14.2605 3.74327C15.5889 5.07171 16.3352 6.87346 16.3352 8.75215V8.75215Z" stroke="white" stroke-width="2.00002" stroke-linecap="round"/>
</g>
<defs>
<clipPath id="clip0_1_4138">
<rect width="20.0008" height="20.0008" fill="white" transform="translate(0.501465 0.00195312)"/>
</clipPath>
</defs>
</svg>
