<svg
      width="83"
      height="26"
      viewBox="0 0 83 26"
      fill="none"
      xmlns="http://www.w3.org/2000/svg"
    >
      <path
        d="M10.9661 21.9764V25.6608L8.63095 25.7473C6.30158 25.828 4.71022 25.4244 3.85689 24.5364C3.30337 23.9714 3.02662 23.1008 3.02662 21.9245V10.318H0.397424V6.80668H3.02662V1.54829H7.90446V6.80668H10.9661V10.318H7.90446V20.2813C7.90446 21.0539 8.00248 21.5382 8.19852 21.7343C8.39456 21.9188 8.9942 22.011 9.99744 22.011C10.1474 22.011 10.303 22.011 10.4645 22.011C10.6374 21.9995 10.8047 21.988 10.9661 21.9764ZM23.6104 11.1829C21.627 11.1829 20.2951 11.8287 19.6148 13.1202C19.2342 13.8467 19.0439 14.9653 19.0439 16.4759V25.4878H14.0796V6.6337H18.7845V9.9202C19.5456 8.66326 20.2086 7.80416 20.7737 7.34289C21.6962 6.57028 22.8955 6.18397 24.3715 6.18397C24.4638 6.18397 24.5387 6.18974 24.5964 6.20127C24.6656 6.20127 24.8097 6.20704 25.0288 6.21857V11.2694C24.7175 11.2348 24.4407 11.2117 24.1985 11.2002C23.9564 11.1887 23.7603 11.1829 23.6104 11.1829ZM44.7305 25.4878H38.5899L35.338 19.8316L32.0688 25.4878H26.084L32.5186 15.9397L26.3607 6.6683H32.3975L35.5456 12.1343L38.6245 6.6683H44.4883L38.2959 15.8532L44.7305 25.4878ZM45.8029 6.6337H51.3381L55.2646 20.5408L59.2775 6.6337H64.5705L57.7727 25.4878H52.5662L45.8029 6.6337ZM67.4765 -0.00847054H72.4062V25.4878H67.4765V-0.00847054ZM77.1457 20.3332H82.3868V25.4878H77.1457V20.3332Z"
        fill="white"
      />
    </svg>